{"title":"Fast.And.Furious.6.2013.EXTENDED.720p.BRRip.x264-Fastbet99","uid":8873967,"size":1918380495,"categoryP":"video","categoryS":"hd___movies","magnet":"?xt=urn:btih:899d051e070081c55052c2c80659698234c41b14&amp;dn=Fast.And.Furious.6.2013.EXTENDED.720p.BRRip.x264-Fastbet99&amp;tr=udp%3A%2F%2Ftracker.openbittorrent.com%3A80&amp;tr=udp%3A%2F%2Fopen.demonii.com%3A1337&amp;tr=udp%3A%2F%2Ftracker.coppersurfer.tk%3A6969&amp;tr=udp%3A%2F%2Fexodus.desync.com%3A6969","seeders":1,"leechers":1,"uploader":"Fastbet99","files":-1,"time":1378143748,"description":"Fast And Furious 6 (2013)\n\nIMDB Info\t\t\t\t : http://www.imdb.com/title/tt1905041/\n\nSource\t\t\t\t\t : PHD (Thanks)\nComplete name                            : Fast.And.Furious.6.2013.EXTENDED.720p.BRRip.x264-Fastbet99.mp4\nFormat                                   : MPEG-4\nFormat profile                           : Base Media\nCodec ID                                 : isom\nFile size                                : 1.79 GiB\nDuration                                 : 2h 11mn\nOverall bit rate mode                    : Variable\nOverall bit rate                         : 1 952 Kbps\n\nVideo\nID                                       : 1\nFormat                                   : AVC\nFormat/Info                              : Advanced Video Codec\nFormat profile                           : &lt;a class=&quot;__cf_email__&quot; href=&quot;/cdn-cgi/l/email-protection&quot; data-cfemail=&quot;064e6f616e464a322837&quot;&gt;[email&amp;#160;protected]&lt;/a&gt;&lt;script cf-hash='f9e31' type=&quot;text/javascript&quot;&gt;\n/* &lt;![CDATA[ */!function(){try{var t=&quot;currentScript&quot;in document?document.currentScript:function(){for(var t=document.getElementsByTagName(&quot;script&quot;),e=t.length;e--;)if(t[e].getAttribute(&quot;cf-hash&quot;))return t[e]}();if(t&amp;&amp;t.previousSibling){var e,r,n,i,c=t.previousSibling,a=c.getAttribute(&quot;data-cfemail&quot;);if(a){for(e=&quot;&quot;,r=parseInt(a.substr(0,2),16),n=2;a.length-n;n+=2)i=parseInt(a.substr(n,2),16)^r,e+=String.fromCharCode(i);e=document.createTextNode(e),c.parentNode.replaceChild(e,c)}}}catch(u){}}();/* ]]&gt; */&lt;/script&gt;\nFormat settings, CABAC                   : Yes\nFormat settings, ReFrames                : 4 frames\nCodec ID                                 : avc1\nCodec ID/Info                            : Advanced Video Coding\nDuration                                 : 2h 11mn\nBit rate                                 : 1 821 Kbps\nMaximum bit rate                         : 11.3 Mbps\nWidth                                    : 1 280 pixels\nHeight                                   : 544 pixels\nDisplay aspect ratio                     : 2.35:1\nFrame rate mode                          : Constant\nFrame rate                               : 23.976 fps\nColor space                              : YUV\nChroma subsampling                       : 4:2:0\nBit depth                                : 8 bits\nScan type                                : Progressive\nBits/(Pixel*Frame)                       : 0.109\nStream size                              : 1.67 GiB (93%)\nWriting library                          : x264 core 133 r2334 a3ac64b\n\nAudio\nID                                       : 2\nFormat                                   : AAC\nFormat/Info                              : Advanced Audio Codec\nFormat profile                           : LC\nCodec ID                                 : 40\nDuration                                 : 2h 11mn\nBit rate mode                            : Variable\nBit rate                                 : 96.0 Kbps\nMaximum bit rate                         : 119 Kbps\nChannel(s)                               : 2 channels\nChannel positions                        : Front: L R\nSampling rate                            : 48.0 KHz\nCompression mode                         : Lossy\nStream size                              : 90.0 MiB (5%)\nLanguage                                 : English\n\nText #1\nID                                       : 3\nFormat                                   : mp4s\nCodec ID                                 : E0\nDuration                                 : 2h 4mn\nBit rate mode                            : Variable\nBit rate                                 : 4 552 bps\nMaximum bit rate                         : 64.1 Kbps\nStream size                              : 4.06 MiB (0%)\nLanguage                                 : English\n\nText #2\nID                                       : 4\nFormat                                   : mp4s\nCodec ID                                 : E0\nDuration                                 : 2h 11mn\nBit rate mode                            : Variable\nBit rate                                 : 3 784 bps\nMaximum bit rate                         : 60.0 Kbps\nStream size                              : 3.55 MiB (0%)\nLanguage                                 : Spanish\n\nText #3\nID                                       : 5\nFormat                                   : mp4s\nCodec ID                                 : E0\nDuration                                 : 2h 11mn\nBit rate mode                            : Variable\nBit rate                                 : 3 216 bps\nMaximum bit rate                         : 62.3 Kbps\nStream size                              : 3.02 MiB (0%)\nLanguage                                 : Portuguese\n\nText #4\nID                                       : 6\nFormat                                   : mp4s\nCodec ID                                 : E0\nDuration                                 : 2h 11mn\nBit rate mode                            : Variable\nBit rate                                 : 3 656 bps\nMaximum bit rate                         : 59.8 Kbps\nStream size                              : 3.43 MiB (0%)\nLanguage                                 : Portuguese\n\nText #5\nID                                       : 7\nFormat                                   : mp4s\nCodec ID                                 : E0\nDuration                                 : 2h 6mn\nBit rate mode                            : Variable\nBit rate                                 : 8 696 bps\nMaximum bit rate                         : 66.8 Kbps\nStream size                              : 7.86 MiB (0%)\nLanguage                                 : English\n\nText #6\nID                                       : 8\nFormat                                   : mp4s\nCodec ID                                 : E0\nDuration                                 : 2h 11mn\nBit rate mode                            : Variable\nBit rate                                 : 7 320 bps\nMaximum bit rate                         : 67.5 Kbps\nStream size                              : 6.86 MiB (0%)\nLanguage                                 : Spanish\nEncoder\t\t\t\t\t : Fastbet99\n\nScreenshots\n &lt;a href=&quot;\nhttp://lookpic.com/O/i2/1922/LcIxS5Mo.jpeg&quot; rel=&quot;nofollow&quot; target=&quot;_NEW&quot;&gt;\nhttp://lookpic.com/O/i2/1922/LcIxS5Mo.jpeg&lt;/a&gt;\n\nStairway To heaven - Help People With Keep Seed As Long You Can","torrent":{"xt":"urn:btih:899d051e070081c55052c2c80659698234c41b14","amp;dn":"Fast.And.Furious.6.2013.EXTENDED.720p.BRRip.x264-Fastbet99","amp;tr":["udp%3A%2F%2Ftracker.openbittorrent.com%3A80","udp%3A%2F%2Fopen.demonii.com%3A1337","udp%3A%2F%2Ftracker.coppersurfer.tk%3A6969","udp%3A%2F%2Fexodus.desync.com%3A6969"],"infoHash":"899d051e070081c55052c2c80659698234c41b14","infoHashBuffer":{"type":"Buffer","data":[137,157,5,30,7,0,129,197,80,82,194,200,6,89,105,130,52,196,27,20]},"announce":[],"urlList":[]}}